<?xml version="1.0" encoding="utf-8"?>
<!DOCTYPE svg PUBLIC "-//W3C//DTD SVG 1.0//EN" "http://www.w3.org/TR/2001/REC-SVG-20010904/DTD/svg10.dtd">
<svg version="1.0" xmlns="http://www.w3.org/2000/svg" width="1024px" height="1024px" viewBox="0 0 1024 1024" preserveAspectRatio="xMidYMid meet">
 <g fill="#000000">
  <path d="M346 871.4 c-1.9 -0.2 -7.8 -0.9 -13 -1.5 -30.2 -3.5 -61.4 -14.1 -85 -28.9 -48.1 -30.2 -79 -76.1 -89.8 -133.5 l-2.6 -14 -0.3 -260.6 -0.3 -260.6 3.7 -0.7 c2.1 -0.3 24.4 -0.6 49.6 -0.6 l45.7 0 0 247 c0 169.2 0.3 250.1 1.1 256.7 4.5 40.2 26.6 72.4 61.6 89.7 31 15.3 74 15.2 105.8 -0.2 28.7 -14 50 -39.4 58 -69.4 4.7 -17.6 4.9 -21.2 5 -95.8 0 -38.8 0.2 -150.7 0.3 -248.7 l0.2 -178.3 49.5 0 49.5 0 0 250.8 c0 166.7 -0.4 254.6 -1.1 262.2 -5.1 56.4 -28.8 104.8 -67.4 137.6 -29.5 25.1 -67 41.6 -106.5 46.9 -11.8 1.6 -55.3 2.9 -64 1.9z"/>
  <path d="M767 775.8 c0 -54.1 -0.4 -95.9 -1 -100.9 -2.9 -25.2 -13.1 -49.3 -28.4 -67.1 -21.1 -24.5 -50.6 -36.8 -88 -36.8 l-11.6 0 0 -47.5 0 -47.5 16.9 0 c36.6 0 66 5.5 93.7 17.4 23.5 10.2 40.7 21.8 58 39 31.6 31.6 50 69.6 58.1 120.1 1.4 8.6 1.7 24 2 112.8 l0.4 102.7 -50 0 -50.1 0 0 -92.2z"/>
  <path d="M768.5 474.6 c-21.4 -10.9 -47.8 -19.8 -66.2 -22.1 l-5.3 -0.7 0 -70.4 0 -70.4 -29.5 0 -29.5 0 0 -47.5 0 -47.5 29.5 0 29.5 0 0.2 -22.3 0.3 -22.2 42.5 -0.3 c23.4 -0.2 44.4 0 46.8 0.3 l4.2 0.6 0 22 0 21.9 30.5 0 30.5 0 0 47.5 0 47.5 -30.5 0 -30.5 0 0 86 0 86 -3.2 -0.1 c-2 -0.1 -9.9 -3.5 -19.3 -8.3z"/>
 </g>
 <g fill="#ffffff">
  <path d="M0 512 l0 -512 512 0 512 0 0 512 0 512 -512 0 -512 0 0 -512z m407 354.5 c39.4 -5.3 77 -21.8 106.5 -46.9 25.5 -21.7 45.6 -51.7 56.5 -84.4 4.7 -14.1 9.5 -37.4 10.9 -53.2 0.7 -7.6 1.1 -94.5 1.1 -259.2 l0 -247.8 -46.5 0 -46.5 0 -0.2 178.3 c-0.1 98 -0.1 203.6 0 234.7 0.2 71.2 -0.6 91.3 -4.6 107 -3.5 13.6 -7.1 22 -14.5 33.3 -18.2 28 -46.4 45 -82.4 49.8 -11 1.4 -36.3 0.7 -45.8 -1.4 -10.8 -2.4 -20.3 -5.6 -27.8 -9.3 -35 -17.3 -57.1 -49.5 -61.6 -89.7 -0.8 -6.6 -1.1 -87.5 -1.1 -256.7 l0 -247 -42.7 0 c-23.6 0 -44.5 0.3 -46.6 0.6 l-3.7 0.7 0.3 257.6 0.3 257.6 2.6 14 c10.8 57.4 41.7 103.3 89.8 133.5 23.6 14.8 54.8 25.4 85 28.9 5.2 0.6 11.1 1.3 13 1.5 8 0.9 46.3 -0.3 58 -1.9z m456.7 -101.2 c-0.3 -86 -0.6 -101.2 -2 -109.8 -6.4 -39.8 -19.1 -71.4 -39.8 -99.2 -8.5 -11.5 -26.5 -29.8 -36.3 -37 -36.2 -26.7 -80.2 -40.3 -130.7 -40.3 l-13.9 0 0 44.5 0 44.5 11.6 0 c37.4 0 66.9 12.3 88 36.8 15.3 17.8 25.5 41.9 28.4 67.1 0.6 5 1 46.8 1 100.9 l0 92.2 47.1 0 47 0 -0.4 -99.7z m-45.2 -457.3 l30.5 0 0 -44.5 0 -44.5 -30.5 0 -30.5 0 0 -21.9 0 -22 -4.2 -0.5 c-2.4 -0.4 -22.1 -0.5 -43.8 -0.3 l-39.5 0.3 -0.3 22.2 -0.2 22.2 -29.5 0 -29.5 0 0 44.5 0 44.5 29.5 0 29.5 0 0 70.4 0 70.4 5.3 0.7 c18 2.3 44.7 11.1 66.2 22 l16 8 0.3 -85.7 0.2 -85.8 30.5 0z"/>
 </g>
</svg>